<?xml version="1.0" encoding="iso-8859-1"?>
<!-- Generator: Adobe Illustrator 19.0.0, SVG Export Plug-In . SVG Version: 6.00 Build 0)  -->
<svg version="1.1" id="Capa_1" xmlns="http://www.w3.org/2000/svg" xmlns:xlink="http://www.w3.org/1999/xlink" x="0px" y="0px"
	 viewBox="0 0 512 512" style="enable-background:new 0 0 512 512;" xml:space="preserve">
<path style="fill:#4FC5EF;" d="M422,37.5H90c-22.091,0-40,17.909-40,40v226h412v-226C462,55.409,444.091,37.5,422,37.5z"/>
<path style="fill:#EFEFEF;" d="M502,454.5c0,11.046-8.954,20-20,20H30c-11.046,0-20-8.954-20-20l40-151h412L502,454.5z"/>
<path style="fill:#CCC3BB;" d="M173.745,474.5H331.5l-13.51-51H187.255L173.745,474.5z"/>
<path d="M80,353.501h312c5.51,0,10-4.49,10-10c0-5.52-4.49-10-10-10H80c-5.51,0-10,4.48-10,10C70,349.012,74.49,353.501,80,353.501z
	"/>
<path d="M432,353.501c5.51,0,10-4.49,10-10c0-5.52-4.49-10-10-10s-10,4.48-10,10C422,349.012,426.49,353.501,432,353.501z"/>
<path d="M442,373.5H70c-5.522,0-10,4.477-10,10s4.478,10,10,10h372c5.522,0,10-4.477,10-10S447.522,373.5,442,373.5z"/>
<path d="M511.667,451.939L472,302.197V77.5c0-27.57-22.43-50-50-50H90c-27.57,0-50,22.43-50,50v224.697L0.333,451.939
	C0.112,452.775,0,453.636,0,454.5c0,16.542,13.458,30,30,30h452c16.542,0,30-13.458,30-30
	C512,453.636,511.888,452.775,511.667,451.939z M60,87.5h156c5.522,0,10-4.477,10-10s-4.478-10-10-10H61.72
	c4.128-11.639,15.244-20,28.28-20h332c13.036,0,24.152,8.361,28.28,20H296c-5.522,0-10,4.477-10,10s4.478,10,10,10h156v206H60V87.5z
	 M186.739,464.5l8.212-31h115.343l8.212,31H186.739z M482,464.5H339.196l-11.539-43.561c-1.162-4.386-5.13-7.439-9.667-7.439
	H187.255c-4.537,0-8.505,3.054-9.667,7.439L166.049,464.5H30c-5.148,0-9.4-3.911-9.941-8.917L57.696,313.5h396.607l37.638,142.083
	C491.4,460.589,487.148,464.5,482,464.5z"/>
<path d="M256,67.501c-2.63,0-5.21,1.07-7.07,2.93s-2.93,4.44-2.93,7.07s1.069,5.21,2.93,7.07c1.86,1.86,4.44,2.93,7.07,2.93
	s5.21-1.07,7.069-2.93c1.86-1.86,2.931-4.44,2.931-7.07s-1.07-5.21-2.931-7.07C261.21,68.571,258.63,67.501,256,67.501z"/>
<g>
</g>
<g>
</g>
<g>
</g>
<g>
</g>
<g>
</g>
<g>
</g>
<g>
</g>
<g>
</g>
<g>
</g>
<g>
</g>
<g>
</g>
<g>
</g>
<g>
</g>
<g>
</g>
<g>
</g>
</svg>
